<svg xmlns="http://www.w3.org/2000/svg" viewBox="0 0 1035.28 1035.28"><defs><style>.cls-1{fill:#f1f5f9;}.cls-2{fill:#010409;}</style></defs><g id="Layer_2" data-name="Layer 2"><g id="BG"><circle class="cls-1" cx="517.64" cy="517.64" r="517.64"/><path class="cls-2" d="M831.85,323.66,827,212.16A9.81,9.81,0,0,0,812.44,204L656.81,289.56A29.28,29.28,0,0,0,607.19,306l-47.81,7.05H494.52l-74.78-11L264.85,216.84a29.29,29.29,0,1,0-39.11,22.28l-2.52,57.66a29.29,29.29,0,0,0,9.49,57c.69,0,1.37,0,2-.07L290.45,474,258.68,616.32a9.91,9.91,0,0,0,4.14,10.31L397.5,716.37,463.73,847.5a9.77,9.77,0,0,0,8.76,5.38H581.4a9.77,9.77,0,0,0,8.77-5.39L656.4,716.37l134.66-89.73a9.88,9.88,0,0,0,4.15-10.32l-26.32-118a29.28,29.28,0,0,0,5-47L831,328.19A9.94,9.94,0,0,0,831.85,323.66ZM636.16,298.88a11.44,11.44,0,1,1-11.43,11.44A11.45,11.45,0,0,1,636.16,298.88ZM232.71,335.93a11.44,11.44,0,1,1,11.44-11.44A11.45,11.45,0,0,1,232.71,335.93Zm18.64,11.14a29.27,29.27,0,0,0-10.24-50.63L243.58,240a29.42,29.42,0,0,0,3.84-1.31l100.32,143-44,78.5ZM644.74,702.69a9.71,9.71,0,0,0-3.32,3.74l-65,128.6h-99L412.49,706.45a9.82,9.82,0,0,0-3.33-3.76L306,634l85.77,22.89,88.56,76-.74,35.88a6.3,6.3,0,0,0,2.45,5.1l41.07,31.38a6.27,6.27,0,0,0,7.59,0l41.08-31.38a6.26,6.26,0,0,0,2.45-5.1l-.74-35.88,88.56-76L747.86,634Zm-187.3-97.12-52.69-4.81-16-31.65,42.48,2.31L458,599.05Zm32.94,161.17.64-30.89h71.86l.63,30.89L527,794.67ZM595.86,599.05l26.83-27.63,42.48-2.31-16,31.65-52.7,4.81Zm180.72,15.78-1,.64L657,647.15,604.4,692.29l-6.32-68.94,56.14-5.12a11.55,11.55,0,0,0,9.3-6.32l24.2-47.83a9.36,9.36,0,0,0-8.87-13.59l-59.57,3.24a11.57,11.57,0,0,0-7.69,3.5L581,588.67a11.61,11.61,0,0,0-3.23,9.15l10,108.73-21.64,18.59h-78.4l-21.64-18.58,10-108.73a11.58,11.58,0,0,0-3.23-9.16l-30.54-31.44a11.57,11.57,0,0,0-7.69-3.5L375,550.49a9.37,9.37,0,0,0-8.87,13.59l24.2,47.83a11.57,11.57,0,0,0,9.31,6.32l56.14,5.12-6.32,68.94-52.56-45.14L278.27,615.47l-1-.64L309,472.76l49.43-88.24a6.27,6.27,0,0,0-.33-6.64L256.35,232.75l-.24-.34.38.21L414,319.21l79.25,11.69h67.47l49.38-7.28h0a29.29,29.29,0,0,0,55-18.21l134.5-74L713.76,354a29.29,29.29,0,1,0-8.89,57.21,29.49,29.49,0,0,0,6.35-.7l23,41.13a29.28,29.28,0,0,0,17.2,50.58ZM742.78,473a11.44,11.44,0,1,1,11.43,11.45A11.44,11.44,0,0,1,742.78,473Zm14.91-29.08h0a28.48,28.48,0,0,0-3.47-.21,29.14,29.14,0,0,0-10.9,2.11l-22.18-39.6a29.26,29.26,0,0,0,2.12-47.15l86.86-124,3.82,87.45Z"/></g></g></svg>